<?xml version="1.0" encoding="UTF-8"?><svg id="Capa_3" xmlns="http://www.w3.org/2000/svg" viewBox="0 0 366 449.51"><defs><style>.cls-1{fill:none;stroke:#021330;stroke-linecap:round;stroke-linejoin:round;stroke-width:22px;}</style></defs><line class="cls-1" x1="36.5" y1="438.51" x2="129.93" y2="438.51"/><line class="cls-1" x1="83.22" y1="309.22" x2="83.22" y2="438.51"/><path class="cls-1" d="m11,72.38h144.43v155.04c0,39.88-32.33,72.22-72.22,72.22h0c-39.88,0-72.22-32.33-72.22-72.22V72.38Z"/><line class="cls-1" x1="11" y1="161.26" x2="116.8" y2="161.26"/><line class="cls-1" x1="264" y1="394.55" x2="355" y2="373.39"/><line class="cls-1" x1="280.22" y1="258.05" x2="309.5" y2="383.97"/><path class="cls-1" d="m156.25,43.71L296.93,11l35.11,151.01c9.03,38.85-15.14,77.66-53.99,86.69h0c-38.85,9.03-77.66-15.14-86.69-53.99l-35.11-151.01Z"/><line class="cls-1" x1="176.38" y1="130.28" x2="279.43" y2="106.32"/></svg>