<?xml version="1.0" encoding="UTF-8"?><svg id="Capa_3" xmlns="http://www.w3.org/2000/svg" viewBox="0 0 576.8 606.43"><defs><style>.cls-1{fill:none;stroke:#021330;stroke-linecap:round;stroke-linejoin:round;stroke-width:22px;}</style></defs><polygon class="cls-1" points="12.61 595.43 565.8 595.43 565.8 412.57 476.2 322.97 104.5 322.97 11 416.47 12.61 595.43"/><polyline class="cls-1" points="104.5 322.97 188.81 407.28 188.81 595.43"/><polyline class="cls-1" points="466.78 322.97 382.47 407.28 382.47 595.43"/><line class="cls-1" x1="188.81" y1="407.28" x2="382.47" y2="407.28"/><path class="cls-1" d="m251.18,595.43v-76.73c0-19.03,15.43-34.46,34.46-34.46h0c19.03,0,34.46,15.43,34.46,34.46v76.73"/><polyline class="cls-1" points="206.5 322.97 206.5 185.59 293.01 111.1 371.27 185.59 371.27 322.97"/><line class="cls-1" x1="293.01" y1="111.1" x2="293.01" y2="11"/><line class="cls-1" x1="253.48" y1="50.51" x2="332.54" y2="50.51"/><circle class="cls-1" cx="293.01" cy="228.02" r="43.91"/><circle class="cls-1" cx="482.28" cy="465.83" r="43.91"/><circle class="cls-1" cx="104.5" cy="465.83" r="43.91"/></svg>