<?xml version="1.0" encoding="UTF-8"?><svg id="Capa_3" xmlns="http://www.w3.org/2000/svg" viewBox="0 0 991.19 601.06"><defs><style>.cls-1{stroke-linejoin:round;}.cls-1,.cls-2,.cls-3{fill:none;stroke:#021330;stroke-width:22px;}.cls-1,.cls-3{stroke-linecap:round;}.cls-2,.cls-3{stroke-miterlimit:10;}.cls-4{fill:#021330;stroke-width:0px;}</style></defs><polyline class="cls-3" points="107.51 73.3 32.45 148.36 92.7 208.62 15.56 285.76 242.28 512.49"/><path class="cls-1" d="m107.85,13.38v150.47l85.63-34.49c12-4.83,21.4-14.78,24.86-27.24.16-.56.3-1.13.43-1.7,4.56-19.56-5.92-39.55-24.22-47.82L107.85,13.38Z"/><path class="cls-1" d="m374.75,13.38v150.47s-85.63-34.49-85.63-34.49c-12-4.83-21.4-14.78-24.86-27.24-.16-.56-.3-1.13-.43-1.7-4.56-19.56,5.92-39.55,24.22-47.82l86.7-39.21Z"/><path class="cls-1" d="m217.8,103.9c4.56,7.86,13.07,13.14,22.81,13.14,10.4,0,19.4-6.02,23.69-14.76"/><path class="cls-1" d="m217.58,77.79c4.52-8.06,13.14-13.51,23.03-13.51,10.55,0,19.66,6.19,23.87,15.14"/><polyline class="cls-1" points="377.04 73.3 452.11 148.36 391.85 208.62 469 285.76 242.27 512.49 148.17 147.61"/><line class="cls-3" x1="341.29" y1="150.38" x2="242.27" y2="512.49"/><circle class="cls-4" cx="246.06" cy="225.47" r="16.69"/><circle class="cls-4" cx="246.06" cy="321.81" r="16.69"/><path class="cls-2" d="m641.53,201.01c-19.9-12.7-33.09-34.96-33.09-60.31,0-26.81,14.76-50.18,36.6-62.4,10.32-5.79,22.22-9.09,34.89-9.09,22.64,0,42.83,10.53,55.92,26.96"/><path class="cls-2" d="m735.85,96.17c13.08-16.43,33.27-26.96,55.91-26.96,39.48,0,71.49,32.01,71.49,71.49,0,25.15-12.99,47.27-32.63,60.01"/><path class="cls-2" d="m654.29,325.11c0-1.23,0-2.45,0-3.65"/><path class="cls-2" d="m648.49,233.89c-2.55-16.97-5.32-27.55-6.96-32.88-.88-2.88-10.33-8-10.33-8"/><path class="cls-2" d="m817.78,321.34c-.01,1.24-.01,2.5-.01,3.77"/><path class="cls-2" d="m823.55,234.03c2.6-17.37,5.45-28.07,7.07-33.32.83-2.67,12.44-10.23,12.44-10.23"/><path class="cls-1" d="m624.66,225.05v106.2l73.66-24.34c10.32-3.41,18.41-10.43,21.39-19.23.13-.4.26-.8.37-1.2,3.93-13.81-5.09-27.91-20.83-33.75l-74.58-27.68Z"/><path class="cls-1" d="m847.76,225.05v106.2s-73.66-24.34-73.66-24.34c-10.32-3.41-18.41-10.43-21.39-19.23-.13-.4-.26-.8-.37-1.2-3.93-13.81,5.09-27.91,20.83-33.75l74.58-27.68Z"/><path class="cls-1" d="m712.24,298.89c5.87,6.89,14.61,11.26,24.37,11.26s18.15-4.2,24.02-10.85"/><path class="cls-1" d="m710.71,259.36c5.82-8.01,15.25-13.21,25.9-13.21s19.76,5.02,25.59,12.79"/><line class="cls-1" x1="645.04" y1="11" x2="645.04" y2="78.3"/><line class="cls-1" x1="831.97" y1="11" x2="831.97" y2="78.3"/><path class="cls-1" d="m624.66,310.15l-124.73,181.11s63.06,98.81,220.34,98.81,259.91-86.55,259.91-86.55l-129.45-198.39"/><polygon class="cls-4" points="746.85 100.05 735.85 113.76 724.85 100.05 746.85 100.05 746.85 100.05"/><line class="cls-2" x1="735.85" y1="89.83" x2="735.85" y2="100.05"/></svg>