<?xml version="1.0" encoding="UTF-8"?><svg id="Capa_3" xmlns="http://www.w3.org/2000/svg" viewBox="0 0 748.33 634.71"><defs><style>.cls-1{fill:none;stroke:#021330;stroke-linecap:round;stroke-linejoin:round;stroke-width:22px;}</style></defs><path class="cls-1" d="m395.54,203.7c-40.79-40.19-96.79-65-158.59-65-124.79,0-225.95,101.16-225.95,225.95s101.16,225.96,225.95,225.96c42.34,0,81.96-11.64,115.83-31.91,14.48-8.65,27.9-18.89,40.04-30.46,43.18-41.15,70.09-99.23,70.09-163.59,0-44.88-13.08-86.71-35.65-121.86"/><path class="cls-1" d="m355.5,234.16c-31.31-28.46-72.91-45.8-118.55-45.8-97.36,0-176.29,78.93-176.29,176.29s78.93,176.29,176.29,176.29c30.46,0,59.11-7.72,84.11-21.32,14.72-8,28.18-18.04,39.98-29.74,32.24-31.95,52.2-76.26,52.2-125.23,0-33.77-9.49-65.32-25.96-92.13"/><path class="cls-1" d="m352.78,558.7c40.8,40.2,96.79,65.01,158.59,65.01,124.79,0,225.96-101.17,225.96-225.96s-101.17-225.96-225.96-225.96c-42.34,0-81.96,11.64-115.83,31.91-14.47,8.65-27.9,18.89-40.04,30.46-43.18,41.15-70.09,99.23-70.09,163.59,0,44.88,13.08,86.71,35.65,121.87"/><path class="cls-1" d="m392.82,528.24c31.32,28.46,72.91,45.8,118.55,45.8,97.36,0,176.29-78.93,176.29-176.29s-78.93-176.29-176.29-176.29c-30.46,0-59.11,7.72-84.11,21.33-14.72,7.99-28.17,18.03-39.98,29.73-32.23,31.95-52.2,76.26-52.2,125.23,0,33.77,9.49,65.32,25.96,92.13"/><polygon class="cls-1" points="236.95 138.7 360.56 68.11 306.68 11 167.22 11 113.34 68.11 236.95 138.7"/><line class="cls-1" x1="113.34" y1="68.11" x2="207.46" y2="68.11"/><line class="cls-1" x1="263.46" y1="68.11" x2="357.58" y2="68.11"/></svg>