<?xml version="1.0" encoding="UTF-8"?><svg id="Capa_2" xmlns="http://www.w3.org/2000/svg" viewBox="0 0 1913.34 2680.62"><defs><style>.cls-1{fill:#021330;stroke-width:0px;}</style></defs><path class="cls-1" d="m249.57,845.85l-5.23-1.65c-23.2,73.26-34.96,149.75-34.96,227.33v541.41c0,414.69,337.37,752.06,752.06,752.06v-5.48c-411.67,0-746.59-334.92-746.59-746.59v-541.41c0-77.02,11.68-152.95,34.71-225.68Z"/><path class="cls-1" d="m1675.94,1830.16l5.24,1.59c21.45-70.66,32.32-144.28,32.32-218.82v-541.41c0-414.69-337.37-752.06-752.05-752.06v5.48c411.66,0,746.58,334.92,746.58,746.59v541.41c0,74-10.8,147.08-32.09,217.22Z"/><path class="cls-1" d="m884.25,2439.1c-425.89-35.13-759.5-397.86-759.5-825.79v-542.16c0-61.38,7.04-122.67,20.91-182.15.23-.95.45-1.9.73-2.8l.05-.23c2.08-2.83,9.13-12.36,19.35-25.5,26.54-34.1,65.2-80.97,99.12-111.3l.17-.12c192.49-23.2,213.3-176.65,215.29-198.88,6.77.34,26.67,1.88,51.84,8.51,4.41,3.41,30.62,24.66,36,51.23l5.37-1.08c-4.07-20.13-18.68-36.92-28.79-46.51,34.25,10.77,75.01,30.99,105.53,69.05l4.28-3.43c-13.97-17.42-30.02-31.18-46.63-42.08h50.62v-5.48h-59.41c-44.65-26.41-91.33-33.35-111.28-35.16,18.07-9.38,59.47-31.07,80.23-43.49,4.22,3.38,16.86,10.48,50.7,14.05v.05h.12c.06,0,.19,0,.29,0,17.93,1.87,41.77,2.74,73.4,1.57,109.89-4.09,199.87-135.68,200.77-137l1.24-1.84-1.55-1.6c-.67-.71-69.66-69.8-167.43-.33-54.81,38.95-89.65,66.64-115.09,86.86-19.47,15.47-32.32,25.69-43.51,32.49-19.21,11.68-60,33.1-79.43,43.22,28.97-36.69,136.91-166.83,245.57-214.39,81.12-17.43,139.4-49.64,176.26-83.06,1.56.17,4.76.44,9.48.44,18.72,0,60.02-4.33,105.49-36.79h57.63v-5.48h-50.28c13.13-10.17,26.51-22.74,39.73-38.29l-4.17-3.54c-34.97,41.14-71,60.97-99.83,70.4,9.09-10.19,23.31-28.77,24.33-46.26l-5.47-.32c-1.24,21.1-24.98,45.36-29.35,49.66-19.32,5.02-34.39,5.39-42.1,5.09,27.08-26.17,41.15-52.66,42.76-73.01,3.48-44.23,56.85-128.08,57.39-128.92l2.99-4.68-5.54.48c-.9.08-90.53,8.87-178.04,106.06-81.19,90.16-101.87,171.94-104.5,183.68-33.32,14.74-66.5,37.11-97.38,62.09v-48.78c6.38-6.43,43.31-47.87,43.31-144.64,0-104.01-140.93-183.35-146.93-186.68l-4.07-2.25v10.65c0,30.33,7.09,60.75,21.08,90.43,25.42,53.79,29.96,115.74,30.75,133.44,1.67,39.42,44.68,92.08,50.39,98.9v53.38c-20,16.52-38.94,34.02-56.24,51.17,6.38-18.57,16.28-56.57,8.46-97.89-4.53-23.98-36.31-105.76-37.66-109.22l-1.94-4.99-2.91,4.49c-.46.71-45.62,71.25-43.32,144.78,2.06,65.93,21.69,109.25,25.81,117.67-23.79,27.06-39.4,47.32-42.86,51.88-121.27,3.75-151.56,76.56-175.91,135.13-10.87,26.16-20.26,48.76-35.82,62.28l-2.67,2.31c-34.42,30.58-73.69,78.18-100.58,112.72-4.57,5.88-8.49,11.01-11.65,15.2,2.92-11.37,6.14-22.89,9.79-34.9,1.55-5.08,3.16-10.15,4.84-15.24,18.12-55.54,42.68-109.96,72.98-161.74l3.05-5.2c21.97-37.01,47.05-72.91,74.55-106.72,40.1-49.4,86.08-95.46,136.65-136.88,45.75-37.45,23.23-219.9,22.25-227.65l-.72-5.67-4.26,3.82c-.79.71-79.46,71.69-122.11,150.9-40.66,75.52-37.63,199.31-37.17,212.58-26.38,32.51-50.47,66.98-71.81,102.47v-71.43c0-71.29-29.6-137.93-81.22-182.84-42.88-37.31-94.28-56.23-152.8-56.23H0l.91,3.72c.54,2.23,14.39,55.45,98.92,131.69,12.54,11.31,19.25,25.31,26.36,40.13,14.9,31.1,31.79,66.35,105.65,94.97v50.01c-27.66,47.36-50.49,96.92-68.08,147.5-2.61-38.25-14.76-75.17-35.58-107.62l-48.26-75.26-2.4,2.25c-1.04.98-25.41,25.03-8.47,113.8,7.76,40.7,63.17,136.88,70.6,149.66-13.86,59.68-20.89,121.15-20.89,182.7v542.16c0,210.8,78.79,412.06,221.85,566.69,142.27,153.78,335.16,247.92,543.15,265.07l.49-5.98Zm-191.82-1927.16c-16.96.63-31.52.65-44.17.27,25.12-5.27,62.49-18.16,96.79-49.76,46.86-43.17,113.11-66.88,135.72-74.09-24.17,31.53-99.87,120.29-188.34,123.58Zm193.89-131.01c-9.47,2.73-90.15,26.99-144.98,77.48-54.29,50-116.38,51.92-122.01,51.95-6.93-.73-12.81-1.61-17.96-2.56,18.02-9.42,66.18-36,104.58-69.84,61.27-53.97,120.84-75.04,177.06-62.64,1.97,1.58,3.49,2.92,4.54,3.89-.34.48-.76,1.06-1.23,1.71Zm-272.34,86.86c25.39-20.18,60.16-47.82,114.86-86.68,66.92-47.55,118.54-28.85,143.64-13.21-54.51-7.64-111.68,14.48-170.14,65.97-43.93,38.7-100.87,67.85-109.47,72.16-11.01-2.66-16.89-5.54-19.73-7.37,10.71-6.91,23.03-16.71,40.85-30.86Zm122.97-152.88c6.94-5.93,66.18-57.17,91.69-99.53,1.66-2.75,3.44-5.75,5.34-8.95,27.45-46.18,83.84-141.01,172.64-168.53-2.35,3.83-5.61,9.24-9.42,15.82-82.47,87.87-94.56,114.1-103.39,133.25-3.94,8.55-7.05,15.31-15.99,25.73-39.68,46.27-127.65,101.6-128.53,102.16l.32.52c-4.47,1.12-9,2.2-13.62,3.23.26-1.03.59-2.3.97-3.69Zm215.26-151.69c-3.34,42.43-63.69,112.75-187.31,148.03,26.12-17.29,86.02-58.76,117.08-94.98,9.43-11,12.85-18.42,16.81-27.01,8.1-17.58,19.02-41.23,87.2-115.41-15.04,28.09-31.79,64.28-33.77,89.37Zm-113.68-22.97c48.97-54.38,98.44-80.6,132.14-93.12-71.1,38.25-117.28,115.92-141.41,156.51-1.89,3.19-3.67,6.18-5.32,8.92-21.25,35.27-66.58,77.06-84.09,92.55,9.47-29.97,35.45-94.65,98.68-164.87Zm-229.79,22.9c-18.34-57.88-70.82-120.74-76.69-127.65-.51-3.92-.92-7.84-1.19-11.77,9.75,7.07,42.2,31.67,69.4,64.42,24.97,30.1,38.73,68.68,38.73,108.63v119.46c-3.8,5.84-7.05,9.85-9,12.04-3.01-3.72-9.21-11.62-16.16-21.73v-108.6c0-12.43-1.72-24.14-5.1-34.82ZM530.35,9.42c23.44,14.02,140.05,88.37,140.05,179.51,0,58.41-14.03,96.33-25.96,118.1v-110.24c0-41.22-14.2-81.04-39.98-112.13-32.73-39.43-73.1-67.3-73.51-67.57l-.4.59c-.09-2.34-.21-4.69-.21-7.03v-1.23Zm20.56,89.32c-8.17-17.33-13.88-34.92-17.18-52.57,15.42,19.14,54.59,70.73,69.77,118.64,3.22,10.14,4.85,21.3,4.85,33.16v100.38c-12.44-19.3-25.31-43.88-26.17-64.06-.8-17.96-5.42-80.83-31.27-135.54Zm-77.87,464.48c-45.79,36.2-56.45,56.18-66.72,75.49-4.42,8.31-8.59,16.15-15.47,25.31-21.86,29.16-87.02,69.84-93.78,74.02-7.33,1.62-14.9,3.07-22.84,4.25,15.41-10.64,55.74-40.67,79.95-78.99l4.32-6.85c27.95-44.45,50.28-79.73,116.23-104.95-.29,2.75-.8,6.71-1.69,11.73Zm-159.14,170.61c22.33-14.58,64.08-43.5,81.34-66.52,7.12-9.5,11.59-17.9,15.92-26.03,9.62-18.07,19.62-36.76,60.2-69.68-9.46,42.73-42.68,129.72-157.45,162.23Zm252.98-301.53v-116.01c3.38,10.35,6.01,19.28,7.06,24.81,6.99,36.98-.98,71.97-7.06,91.2Zm-5.47-132.19v147.22c-.03.07-.11.24-.11.26-7.29,7.42-14.25,14.71-20.81,21.77v-226.26c4.91,12.88,13.56,35.86,20.92,57.01Zm-46.73-11.03v177.3c-6.72-20.18-14.48-51.56-15.72-91.41-.96-30.87,6.67-61.23,15.72-85.89Zm5.47,192.14v-206.01c5.45-12.97,10.85-23.59,14.87-30.9v230.97c-4.09,4.46-8.05,8.84-11.79,13.05-.81-1.73-1.85-4.11-3.08-7.11Zm-214.57,200.7c22.67-54.54,50.66-121.73,155.69-130.85-58.95,25.59-81.6,61.44-107.4,102.47l-4.31,6.85c-19.1,30.22-48.51,55.19-67.12,69.22,8.91-13.48,15.9-30.24,23.15-47.69Zm163.25-489.41c.13,1.16.26,2.43.4,3.82-5.58,11.91-48.5,104.88-48.5,148.86s-45.45,123.7-50.71,132.95c-15.16,15.42-29.75,31.27-43.69,47.53,9.69-36.88,39.22-147.7,53.73-183.8,14.21-35.39,72.33-124.47,88.76-149.37Zm-23,216.21c-21.57,17.76-42.26,36.38-62.06,55.72,15.02-28.44,42.44-85.01,42.44-119.24,0-28.09,18.88-78.6,33.09-112.64-.62,145.13-11.12,171.98-13.47,176.16Zm8.66-8.97c4.67-19.7,10.29-66.92,10.31-180.12,2.09-4.81,3.95-9.01,5.48-12.42,4.28,47.12,10.69,155.11-15.8,192.55Zm-102.39-63.86c29.53-54.85,76.63-105.78,102.44-131.6-23,35.29-67.09,104.53-79.55,135.54-16.79,41.79-53.37,182.19-56.83,195.51-.88,1.06-1.8,2.1-2.68,3.16-.46-29.77.62-135.74,36.62-202.61Zm-120.26,240.78v2.19c-26.46-141.32-153.85-212.43-199.33-233.59,45.25,5.22,85.58,22.98,120.18,53.08,50.3,43.77,79.15,108.77,79.15,178.32ZM15.65,343.89c15.87,6.2,190.89,78.55,213.19,251.26-40.36-36.71-48.43-55.46-59.29-80.78-5.62-13.11-12-27.97-24.02-47.71-42.33-69.52-120.09-104.32-131.66-109.21-2.98-6.14-4.88-10.88-5.93-13.84,2.59.04,5.15.16,7.71.28Zm115.95,166.64c-7.37-15.37-14.32-29.89-27.74-41.99-48.8-44.01-73.72-80.56-86.02-103.33,21.77,10.08,86.17,43.78,123.02,104.3,11.82,19.41,18.11,34.08,23.67,47.02,10.65,24.84,19.27,44.84,59.95,82.02-63.48-27.01-79.12-59.33-92.87-88.02Zm-49.55,125.68l10.73,16.73c-3.8,30.36,14.01,59.03,25.87,78.08,2.24,3.59,4.25,6.83,5.84,9.64,8.08,14.31,12.52,32.98,17.22,52.75,3.39,14.27,6.92,28.99,12.01,42.78-3.16,10.44-5.99,20.7-8.65,30.83-4.03-25.98-17.38-52.58-30.42-78.48-8.34-16.55-16.22-32.19-20.94-46.48-10.61-32.34-11.68-84.84-11.66-105.84Zm76.76,183.91c-.02.06-.04.13-.06.19-.78,2.37-1.5,4.74-2.26,7.11-3.75-11.5-6.66-23.53-9.45-35.28-4.79-20.16-9.31-39.2-17.78-54.18-1.62-2.87-3.68-6.17-5.96-9.84-10.49-16.86-25.79-41.52-25.54-67.42l25.82,40.25c22.87,35.64,35.02,76.83,35.23,119.17Zm-82.26-183.46c-.05,21.56,1.04,73.83,11.95,107.1,4.85,14.68,12.82,30.49,21.25,47.24,14.8,29.39,30.06,59.71,31.04,88.46-14.36-25.17-59.65-106.43-66.37-141.68-11.33-59.42-3.64-88.72,2.13-101.11Z"/><circle class="cls-1" cx="575.36" cy="628.01" r="14.55"/><path class="cls-1" d="m649.38,644.22c0,8.04,6.51,14.55,14.55,14.55s14.55-6.51,14.55-14.55-6.51-14.55-14.55-14.55-14.55,6.51-14.55,14.55Z"/><path class="cls-1" d="m693.03,584.74c0-8.04-6.52-14.55-14.55-14.55s-14.55,6.51-14.55,14.55,6.51,14.55,14.55,14.55,14.55-6.51,14.55-14.55Z"/><circle class="cls-1" cx="990.63" cy="164.05" r="14.55"/><path class="cls-1" d="m1083.97,161.75c8.04,0,14.55-6.51,14.55-14.55s-6.51-14.55-14.55-14.55-14.55,6.51-14.55,14.55,6.51,14.55,14.55,14.55Z"/><circle class="cls-1" cx="1100.05" cy="202.66" r="14.55"/><path class="cls-1" d="m1912.43,2339.32c-.54-2.23-14.39-55.45-98.93-131.69-12.54-11.31-19.25-25.31-26.36-40.13-14.9-31.11-31.79-66.35-105.64-94.97v-50.02c27.65-47.36,50.48-96.92,68.08-147.5,2.61,38.25,14.76,75.18,35.58,107.62l48.26,75.25,2.4-2.25c1.04-.98,25.41-25.03,8.48-113.8-7.77-40.71-63.2-136.92-70.61-149.66,13.86-59.66,20.89-121.12,20.89-182.7v-542.16c0-210.8-78.79-412.06-221.85-566.69-142.27-153.78-335.16-247.92-543.15-265.07l-.49,5.98c425.89,35.13,759.5,397.86,759.5,825.79v542.16c0,61.4-7.04,122.69-20.91,182.15-.23.95-.45,1.9-.73,2.8l-.05.23c-2.08,2.83-9.13,12.36-19.35,25.5-26.55,34.11-65.21,80.99-99.12,111.3l-.18.12c-192.49,23.2-213.29,176.65-215.28,198.88-6.78-.34-26.67-1.88-51.84-8.51-4.4-3.42-30.63-24.7-36.01-51.23l-5.37,1.09c4.08,20.13,18.69,36.92,28.79,46.5-34.25-10.77-75.01-30.99-105.53-69.05l-4.28,3.43c13.97,17.42,30.02,31.18,46.63,42.08h-50.62v5.48h59.42c44.64,26.41,91.33,33.35,111.28,35.16-18.07,9.38-59.47,31.07-80.23,43.49-4.23-3.38-16.88-10.47-50.7-14.04v-.05s-.17,0-.37,0c-17.94-1.87-41.79-2.75-73.44-1.57-109.89,4.09-199.87,135.68-200.77,137l-1.24,1.84,1.55,1.6c.45.47,31.19,31.28,80.57,31.28,24.76,0,54.2-7.75,86.86-30.95,54.81-38.94,89.65-66.64,115.09-86.85,19.47-15.47,32.33-25.69,43.53-32.5,19.21-11.68,60.01-33.11,79.43-43.22-28.96,36.68-136.91,166.83-245.58,214.39-81.12,17.43-139.4,49.64-176.26,83.06-7.94-.83-58.16-4.13-114.91,36.36h-57.69v5.48h50.33c-13.14,10.18-26.54,22.72-39.78,38.29l4.17,3.54c34.98-41.15,71.01-60.98,99.84-70.41-9.09,10.19-23.31,28.77-24.35,46.27l5.47.32c1.25-21.11,25.01-45.39,29.36-49.67,19.32-5.02,34.39-5.39,42.1-5.08-27.08,26.17-41.16,52.66-42.76,73.01-3.48,44.23-56.85,128.08-57.39,128.92l-2.99,4.68,5.54-.48c.9-.08,90.53-8.87,178.05-106.06,81.18-90.16,101.86-171.94,104.5-183.68,33.32-14.74,66.5-37.1,97.38-62.08v48.78c-6.38,6.43-43.31,47.87-43.31,144.64,0,104.01,140.93,183.35,146.93,186.68l4.07,2.25v-10.65c0-30.32-7.09-60.75-21.07-90.43-25.42-53.77-29.96-115.74-30.75-133.44-1.68-39.42-44.69-92.08-50.39-98.9v-53.38c20-16.52,38.93-34.02,56.23-51.16-6.38,18.57-16.27,56.57-8.46,97.89,4.54,23.98,36.31,105.76,37.66,109.22l1.94,4.99,2.91-4.49c.46-.71,45.62-71.25,43.32-144.78-2.06-65.92-21.68-109.24-25.8-117.66,23.79-27.07,39.4-47.32,42.86-51.88,121.26-3.75,151.56-76.56,175.9-135.13,10.87-26.16,20.26-48.76,35.82-62.28l2.67-2.31c34.4-30.56,73.69-78.17,100.58-112.72,4.51-5.8,8.37-10.86,11.52-15.02-2.93,11.41-6.08,22.98-9.65,34.72-1.55,5.08-3.17,10.16-4.84,15.24-18.12,55.54-42.68,109.96-72.98,161.74l-3.05,5.2c-21.97,37.01-47.05,72.91-74.56,106.72-40.08,49.39-86.05,95.44-136.63,136.88-45.75,37.45-23.23,219.9-22.25,227.65l.72,5.67,4.26-3.82c.79-.71,79.46-71.69,122.11-150.9,40.66-75.53,37.63-199.31,37.17-212.58,26.38-32.52,50.47-66.98,71.81-102.48v71.44c0,71.29,29.6,137.94,81.21,182.84,42.88,37.31,94.29,56.23,152.8,56.23h3.83l-.91-3.72Zm-691.51-170.64c16.99-.63,31.56-.65,44.22-.27-25.09,5.24-62.47,18.09-96.85,49.76-46.86,43.16-113.09,66.87-135.71,74.09,24.17-31.53,99.88-120.29,188.34-123.58Zm-193.88,131c9.51-2.74,90.16-27.01,144.97-77.48,54.47-50.17,116.93-51.88,122.08-51.95,6.9.73,12.75,1.6,17.89,2.55-18.02,9.42-66.18,36.01-104.58,69.84-61.27,53.97-120.85,75.02-177.05,62.65-1.97-1.58-3.49-2.92-4.54-3.89.34-.48.76-1.06,1.23-1.71Zm272.34-86.85c-25.39,20.18-60.16,47.82-114.86,86.68-66.98,47.59-118.6,28.84-143.67,13.18,7.01.99,14.06,1.53,21.16,1.53,48.09,0,98.07-22.6,149.02-67.48,43.93-38.7,100.86-67.85,109.47-72.16,11.01,2.66,16.89,5.54,19.74,7.38-10.71,6.91-23.04,16.71-40.85,30.87Zm-122.97,152.88c-6.96,5.95-66.18,57.18-91.68,99.53-1.66,2.75-3.44,5.74-5.34,8.94-27.45,46.19-83.85,141.01-172.65,168.54,2.35-3.83,5.61-9.24,9.42-15.82,82.47-87.87,94.56-114.1,103.39-133.25,3.94-8.55,7.06-15.31,15.99-25.73,39.68-46.28,127.65-101.61,128.54-102.16l-.33-.52c4.46-1.12,9-2.2,13.62-3.23-.26,1.03-.59,2.31-.97,3.7Zm-215.26,151.69c3.34-42.43,63.7-112.75,187.33-148.04-26.11,17.29-86.03,58.77-117.09,94.99-9.43,11-12.85,18.42-16.81,27.01-8.1,17.58-19.02,41.23-87.2,115.42,15.04-28.09,31.79-64.28,33.77-89.37Zm113.68,22.97c-48.97,54.38-98.44,80.59-132.14,93.12,71.1-38.25,117.28-115.93,141.41-156.52,1.9-3.19,3.67-6.17,5.32-8.91,21.24-35.27,66.56-77.04,84.08-92.55-9.49,29.99-35.5,94.71-98.66,164.86Zm229.79-22.9c18.34,57.88,70.82,120.74,76.69,127.64.51,3.92.92,7.84,1.19,11.77-9.75-7.07-42.2-31.67-69.4-64.42-24.97-30.1-38.72-68.68-38.72-108.63v-119.47c3.79-5.84,7.04-9.85,8.99-12.03,3.01,3.72,9.21,11.62,16.16,21.73v108.6c0,12.43,1.72,24.14,5.1,34.82Zm78.38,153.73c-23.44-14.02-140.05-88.37-140.05-179.51,0-58.42,14.03-96.35,25.96-118.11v110.25c0,41.22,14.19,81.05,39.98,112.13,32.74,39.43,73.1,67.29,73.51,67.57l.4-.59c.09,2.34.21,4.69.21,7.03v1.23Zm-20.56-89.32c8.17,17.34,13.87,34.92,17.18,52.58-15.42-19.14-54.59-70.73-69.77-118.64-3.22-10.14-4.85-21.3-4.85-33.16v-100.38c12.44,19.3,25.32,43.88,26.17,64.07.8,17.97,5.42,80.84,31.27,135.54Zm77.85-464.46c45.82-36.22,56.48-56.2,66.74-75.51,4.42-8.31,8.59-16.15,15.46-25.31,21.87-29.17,87.06-69.87,93.78-74.02,7.33-1.62,14.9-3.07,22.84-4.24-15.41,10.64-55.74,40.67-79.95,78.99l-4.32,6.86c-27.96,44.44-50.29,79.72-116.23,104.95.28-2.74.79-6.7,1.68-11.72Zm159.17-170.63c-22.33,14.58-64.09,43.51-81.35,66.53-7.12,9.5-11.59,17.9-15.91,26.02-9.61,18.08-19.62,36.77-60.23,69.71,9.42-42.72,42.59-129.75,157.49-162.26Zm-253,301.54v116c-3.38-10.35-6.01-19.28-7.06-24.8-6.99-36.98.98-71.97,7.06-91.2Zm5.47,132.19v-147.21c.03-.07.1-.23.11-.25,7.29-7.42,14.25-14.72,20.82-21.78v226.26c-4.92-12.88-13.56-35.87-20.93-57.03Zm46.73,11.05v-177.32c6.72,20.18,14.48,51.56,15.72,91.41.97,30.88-6.67,61.24-15.72,85.91Zm-5.47-192.16v206.02c-5.45,12.96-10.85,23.57-14.86,30.88v-230.97c4.08-4.46,8.05-8.84,11.78-13.04.8,1.73,1.85,4.11,3.08,7.11Zm214.57-200.7c-22.67,54.54-50.66,121.73-155.69,130.85,58.94-25.59,81.59-61.43,107.4-102.46l4.32-6.86c19.09-30.22,48.5-55.19,67.12-69.22-8.91,13.48-15.9,30.24-23.15,47.69Zm146.79-138.22c.02-.06.04-.13.06-.19.78-2.37,1.5-4.74,2.26-7.1,3.75,11.5,6.67,23.54,9.45,35.29,4.79,20.15,9.31,39.19,17.78,54.17,1.62,2.87,3.68,6.18,5.96,9.85,10.49,16.85,25.78,41.52,25.53,67.41l-25.82-40.25c-22.86-35.65-35.01-76.83-35.22-119.17Zm76.75,183.91l-10.73-16.73c3.8-30.35-14-59.02-25.86-78.07-2.24-3.6-4.25-6.83-5.85-9.65-8.08-14.31-12.52-32.98-17.22-52.74-3.39-14.27-6.93-29-12.01-42.79,3.15-10.4,5.98-20.67,8.65-30.82,4.03,25.98,17.39,52.59,30.43,78.48,8.34,16.55,16.21,32.18,20.93,46.47,10.61,32.34,11.68,84.85,11.65,105.85Zm5.5-.46c.06-21.56-1.03-73.83-11.95-107.1-4.85-14.68-12.81-30.49-21.24-47.22-14.8-29.4-30.08-59.73-31.05-88.48,14.35,25.15,59.65,106.43,66.38,141.7,11.33,59.42,3.64,88.72-2.13,101.11Zm-392.29,444.17c-.13-1.16-.26-2.43-.4-3.82,5.58-11.91,48.5-104.88,48.5-148.86s45.43-123.66,50.7-132.95c15.17-15.43,29.76-31.29,43.7-47.55-9.68,36.88-39.22,147.7-53.73,183.81-14.22,35.39-72.34,124.47-88.77,149.37Zm22.99-216.2c21.57-17.77,42.27-36.39,62.06-55.73-15.02,28.44-42.43,85-42.43,119.24,0,28.09-18.88,78.6-33.09,112.64.62-144.97,11.09-171.92,13.46-176.15Zm-8.65,8.96c-4.67,19.7-10.29,66.92-10.31,180.11-2.09,4.81-3.95,9.01-5.48,12.42-4.28-47.12-10.69-155.09,15.8-192.54Zm102.39,63.85c-29.53,54.85-76.63,105.78-102.44,131.6,23.01-35.29,67.09-104.53,79.56-135.54,16.78-41.8,53.39-182.25,56.83-195.51.88-1.06,1.8-2.09,2.67-3.15.46,29.78-.63,135.76-36.62,202.61Zm220.5-174.66c7.37,15.37,14.32,29.89,27.74,41.99,48.8,44.02,73.73,80.56,86.02,103.33-21.76-10.08-86.17-43.78-123.03-104.3-11.82-19.4-18.11-34.07-23.66-47.02-10.65-24.84-19.27-44.84-59.95-82.03,63.48,27.01,79.13,59.33,92.88,88.02Zm-100.24-66.12v-2.17c26.47,141.3,153.85,212.4,199.32,233.57-45.25-5.22-85.58-22.98-120.17-53.08-50.3-43.77-79.15-108.76-79.15-178.32Zm216.19,232.76c-15.86-6.2-190.9-78.62-213.19-251.26,40.38,36.71,48.43,55.47,59.29,80.78,5.62,13.11,12,27.97,24.02,47.71,42.35,69.54,120.14,104.35,131.67,109.21,2.98,6.14,4.88,10.88,5.93,13.84-2.59-.04-5.15-.16-7.72-.28Z"/><circle class="cls-1" cx="1337.98" cy="2052.62" r="14.55"/><circle class="cls-1" cx="1249.4" cy="2036.41" r="14.55"/><circle class="cls-1" cx="1234.85" cy="2095.88" r="14.55"/><circle class="cls-1" cx="922.71" cy="2516.57" r="14.55"/><circle class="cls-1" cx="829.37" cy="2533.42" r="14.55"/><circle class="cls-1" cx="813.29" cy="2477.97" r="14.55"/><path class="cls-1" d="m1407.99,1596.67h-154.51v3.92c15.02,0,28.6,2.22,40.75,6.6,12.15,4.38,22.14,11.23,29.91,20.57,7.77,9.34,13.06,21.35,15.93,36.11,2.81,14.76,2.16,32.72-1.96,53.94-8.82,38.86-24.88,66.94-48.13,84.24-23.31,17.37-54.66,25.99-93.97,25.99s-72.62-9.27-98.22-27.95c-25.6-18.61-45.97-42.06-60.93-70.27-15.02-28.21-25.53-58.97-31.48-92.41-5.94-33.37-8.95-64.52-8.95-93.52s3-61,8.95-94.37c3.13-17.44,7.44-34.22,13.13-50.22h-55.77v-6.27c19.46,0,34.15-1.63,43.88-4.77,9.8-3.2,16.26-12.41,19.4-27.69v-49.89c-12.28,9.14-23.71,19.33-34.22,30.56-24.88,26.38-44.02,57.01-57.47,91.95-13.45,34.94-20.18,71.84-20.18,110.69s6.73,74.9,20.18,109.84c13.45,34.94,32.59,65.63,57.47,92.02,24.82,26.38,54.6,47.35,89.27,62.89,34.68,15.54,73.01,23.31,114.94,23.31,24.82,0,45.91-3,63.28-8.95,17.31-5.94,32.59-12.54,45.78-19.79,13.26-7.25,25.14-13.84,35.72-19.79,10.64-5.94,21.09-8.95,31.48-8.95,13.45,0,22.53,5.16,27.17,15.54,4.64,10.32,7.77,23.05,9.34,38.01h3.07l.78-.72v-226.74c0-2.61-1.57-3.92-4.64-3.92Zm-135.9-323c21.75,9.86,40.23,23.05,55.51,39.64,15.28,16.52,27.82,35.59,37.68,57.01,9.8,21.49,17.31,43.62,22.53,66.42h3.85v-177.83h-3.85c-3.13,7.25-7.38,13.32-12.8,18.29-5.49,4.9-13.39,7.38-23.71,7.38-9.34,0-19.53-1.57-30.69-4.7-11.1-3.07-23.05-6.47-35.72-10.06-12.67-3.66-26.38-6.99-41.14-10.12-14.76-3.07-30.63-4.64-47.74-4.64-33.11,0-63.93,4.83-92.47,14.5v13.39c24.69-16,55.57-24.03,92.47-24.03,29,0,54.33,4.96,76.08,14.76Z"/><path class="cls-1" d="m1033.14,848.66l-196.24,513.49c4.24-26.38,1.63-54.73-7.9-85.03-9.47-30.37-22.79-61.19-39.9-92.6-17.18-31.35-36.31-62.89-57.4-94.56-21.09-31.61-40.75-61.97-58.91-90.97-18.22-29-33.63-56.42-46.3-82.28-12.67-25.8-19-48.52-19-68.05h-87.05v5.55c18.48,0,32.85,1.05,43.17,3.2,10.25,2.09,18.02,7.12,23.31,15.02,5.29,7.9,8.55,19.4,9.93,34.42,1.31,15.02,1.96,35.46,1.96,61.32v311.7c0,25.86-1.7,46.3-5.16,61.32-3.46,15.02-8.95,26.51-16.59,34.42-7.64,7.9-17.7,12.93-30.11,15.02-12.41,2.16-27.82,3.2-46.24,3.2v5.49h204.86v-5.49c-17.89,0-33.11-1.04-45.45-3.2-12.41-2.09-22.6-7.12-30.5-15.02s-13.58-19.4-16.98-34.42c-3.46-15.02-5.16-35.46-5.16-61.32v-273.76c5.81,21.09,14.5,43.04,26.12,65.7,11.56,22.66,24.62,45.58,39.18,68.83,14.5,23.18,29.78,46.3,45.84,69.22,16.13,22.92,31.15,45.52,45.13,67.66,13.98,22.14,26.38,43.36,37.16,63.67,10.84,20.31,18.35,39.71,22.6,58.12h8.69l193.83-511.08v422.46c16.72-12.67,35.07-23.44,55.05-32.39,7.31-3.27,14.82-6.2,22.47-8.75v-301.38c0-25.86.65-46.3,2.02-61.32,1.31-15.02,4.57-26.51,9.86-34.42,5.29-7.9,13.19-12.93,23.71-15.02,10.58-2.16,24.82-3.2,42.77-3.2v-5.55h-148.77Zm70.4,511.93v-77.65c-1.96,1.24-3.85,2.55-5.75,3.92-25.6,18.68-45.97,42.06-60.93,70.27-7.18,13.45-13.32,27.49-18.35,42.19h148.37v-5.49c-19.53,0-34.35-1.7-44.34-5.16-9.99-3.46-16.33-12.8-19-28.08Z"/><path class="cls-1" d="m1025.11,600.99c-37.8,0-68.44,30.64-68.44,68.44,0-37.8-30.64-68.44-68.44-68.44,37.8,0,68.44-30.64,68.44-68.43,0,37.79,30.64,68.43,68.44,68.43Z"/><path class="cls-1" d="m1025.11,2136.04c-37.8,0-68.44,30.64-68.44,68.44,0-37.8-30.64-68.44-68.44-68.44,37.8,0,68.44-30.64,68.44-68.43,0,37.79,30.64,68.43,68.44,68.43Z"/></svg>